inDegrees=no
DataType=double
version=3
OpenSimVersion=4.4-2022-10-11-798caa840
endheader
time	elv_angle	shoulder_elv	shoulder_rot	elbow_flexion	pro_sup	deviation	flexion
2.4020851434	0.4955342114	1.4124808311	0.4363323152	1.7624760866	0.0000000000	0.0000000000	0.0000000000
2.4062554301	0.4955342114	1.4124808311	0.4363323152	1.7624760866	0.0000000000	0.0000000000	0.0000000000
2.4104257168	0.4955342114	1.4124808311	0.4363323152	1.7624760866	0.0000000000	0.0000000000	0.0000000000
2.4145960035	0.4955342114	1.4124808311	0.4363323152	1.7624760866	0.0000000000	0.0000000000	0.0000000000
2.4187662902	0.4955342114	1.4124808311	0.4363323152	1.7624760866	0.0000000000	0.0000000000	0.0000000000
2.4229365769	0.4955342114	1.4124808311	0.4363323152	1.7624760866	0.0000000000	0.0000000000	0.0000000000
2.4271068636	0.4955342114	1.4124808311	0.4363323152	1.7624760866	0.0000000000	0.0000000000	0.0000000000
2.4312771503	0.4955342114	1.4124808311	0.4363323152	1.7624760866	0.0000000000	0.0000000000	0.0000000000
2.4354474370	0.4955342114	1.4124808311	0.4363323152	1.7624760866	0.0000000000	0.0000000000	0.0000000000
2.4396177237	0.4955342114	1.4124808311	0.4363323152	1.7624760866	0.0000000000	0.0000000000	0.0000000000
2.4437880104	0.4955342114	1.4124808311	0.4363323152	1.7624760866	0.0000000000	0.0000000000	0.0000000000
2.4479582971	0.4955342114	1.4124808311	0.4363323152	1.7624760866	0.0000000000	0.0000000000	0.0000000000
2.4521285838	0.4955342114	1.4124808311	0.4363323152	1.7624760866	0.0000000000	0.0000000000	0.0000000000
2.4562988705	0.4955342114	1.4124808311	0.4363323152	1.7624760866	0.0000000000	0.0000000000	0.0000000000
2.4604691573	0.4955342114	1.4124808311	0.4363323152	1.7624760866	0.0000000000	0.0000000000	0.0000000000
2.4646394440	0.4955342114	1.4124808311	0.4363323152	1.7624760866	0.0000000000	0.0000000000	0.0000000000
2.4688097307	0.4955342114	1.4124808311	0.4363323152	1.7624760866	0.0000000000	0.0000000000	0.0000000000
2.4729800174	0.4955342114	1.4124808311	0.4363323152	1.7624760866	0.0000000000	0.0000000000	0.0000000000
2.4771503041	0.4955342114	1.4124808311	0.4363323152	1.7624760866	0.0000000000	0.0000000000	0.0000000000
2.4813205908	0.4955342114	1.4124808311	0.4363323152	1.7624760866	0.0000000000	0.0000000000	0.0000000000
2.4854908775	0.4955342114	1.4124808311	0.4363323152	1.7624760866	0.0000000000	0.0000000000	0.0000000000
2.4896611642	0.4955342114	1.4124808311	0.4363323152	1.7624760866	0.0000000000	0.0000000000	0.0000000000
2.4938314509	0.4955342114	1.4124808311	0.4363323152	1.7624760866	0.0000000000	0.0000000000	0.0000000000
2.4980017376	0.4955342114	1.4124808311	0.4363323152	1.7624760866	0.0000000000	0.0000000000	0.0000000000
2.5021720243	0.4955342114	1.4124808311	0.4363323152	1.7624760866	0.0000000000	0.0000000000	0.0000000000
2.5063423110	0.4955342114	1.4124808311	0.4363323152	1.7624760866	0.0000000000	0.0000000000	0.0000000000
2.5105125977	0.4955342114	1.4124808311	0.4363323152	1.7624760866	0.0000000000	0.0000000000	0.0000000000
2.5146828844	0.4955342114	1.4124808311	0.4363323152	1.7624760866	0.0000000000	0.0000000000	0.0000000000
2.5188531712	0.4955342114	1.4124808311	0.4363323152	1.7624760866	0.0000000000	0.0000000000	0.0000000000
2.5230234579	0.4955342114	1.4124808311	0.4363323152	1.7624760866	0.0000000000	0.0000000000	0.0000000000
2.5271937446	0.4955342114	1.4124808311	0.4363323152	1.7624760866	0.0000000000	0.0000000000	0.0000000000
2.5313640313	0.4955342114	1.4124808311	0.4363323152	1.7624760866	0.0000000000	0.0000000000	0.0000000000
2.5355343180	0.4955342114	1.4124808311	0.4363323152	1.7624760866	0.0000000000	0.0000000000	0.0000000000
2.5397046047	0.4955342114	1.4124808311	0.4363323152	1.7624760866	0.0000000000	0.0000000000	0.0000000000
2.5438748914	0.4955342114	1.4124808311	0.4363323152	1.7624760866	0.0000000000	0.0000000000	0.0000000000
2.5480451781	0.4955342114	1.4124808311	0.4363323152	1.7624760866	0.0000000000	0.0000000000	0.0000000000
2.5522154648	0.4955342114	1.4124808311	0.4363323152	1.7624760866	0.0000000000	0.0000000000	0.0000000000
2.5563857515	0.4955342114	1.4124808311	0.4363323152	1.7624760866	0.0000000000	0.0000000000	0.0000000000
2.5605560382	0.4955342114	1.4124808311	0.4363323152	1.7624760866	0.0000000000	0.0000000000	0.0000000000
2.5647263249	0.4955342114	1.4124808311	0.4363323152	1.7624760866	0.0000000000	0.0000000000	0.0000000000
2.5688966116	0.4955342114	1.4124808311	0.4363323152	1.7624760866	0.0000000000	0.0000000000	0.0000000000
2.5730668983	0.4955342114	1.4124808311	0.4363323152	1.7624760866	0.0000000000	0.0000000000	0.0000000000
2.5772371851	0.4955342114	1.4124808311	0.4363323152	1.7624760866	0.0000000000	0.0000000000	0.0000000000
2.5814074718	0.4955342114	1.4124808311	0.4363323152	1.7624760866	0.0000000000	0.0000000000	0.0000000000
2.5855777585	0.4955342114	1.4124808311	0.4363323152	1.7624760866	0.0000000000	0.0000000000	0.0000000000
2.5897480452	0.4955342114	1.4124808311	0.4363323152	1.7624760866	0.0000000000	0.0000000000	0.0000000000
2.5939183319	0.4955342114	1.4124808311	0.4363323152	1.7624760866	0.0000000000	0.0000000000	0.0000000000
2.5980886186	0.4955342114	1.4124808311	0.4363323152	1.7624760866	0.0000000000	0.0000000000	0.0000000000
2.6022589053	0.4955342114	1.4124808311	0.4363323152	1.7624760866	0.0000000000	0.0000000000	0.0000000000
2.6064291920	0.4955342114	1.4124808311	0.4363323152	1.7624760866	0.0000000000	0.0000000000	0.0000000000
2.6105994787	0.4955342114	1.4124808311	0.4363323152	1.7624760866	0.0000000000	0.0000000000	0.0000000000
2.6147697654	0.4955342114	1.4124808311	0.4363323152	1.7624760866	0.0000000000	0.0000000000	0.0000000000
2.6189400521	0.4955342114	1.4124808311	0.4363323152	1.7624760866	0.0000000000	0.0000000000	0.0000000000
2.6231103388	0.4955342114	1.4124808311	0.4363323152	1.7624760866	0.0000000000	0.0000000000	0.0000000000
2.6272806255	0.4955342114	1.4124808311	0.4363323152	1.7624760866	0.0000000000	0.0000000000	0.0000000000
2.6314509123	0.4955342114	1.4124808311	0.4363323152	1.7624760866	0.0000000000	0.0000000000	0.0000000000
2.6356211990	0.4955342114	1.4124808311	0.4363323152	1.7624760866	0.0000000000	0.0000000000	0.0000000000
2.6397914857	0.4955342114	1.4124808311	0.4363323152	1.7624760866	0.0000000000	0.0000000000	0.0000000000
2.6439617724	0.4955342114	1.4124808311	0.4363323152	1.7624760866	0.0000000000	0.0000000000	0.0000000000
2.6481320591	0.4955342114	1.4124808311	0.4363323152	1.7624760866	0.0000000000	0.0000000000	0.0000000000
2.6523023458	0.4955342114	1.4124808311	0.4363323152	1.7624760866	0.0000000000	0.0000000000	0.0000000000
2.6564726325	0.4955357909	1.4124795198	0.4363323152	1.7624752522	0.0000000000	0.0000000000	0.0000000000
2.6606429192	0.4955463409	1.4124708176	0.4363323152	1.7624688148	0.0000000000	0.0000000000	0.0000000000
2.6648132059	0.4955745041	1.4124476910	0.4363323152	1.7624520063	0.0000000000	0.0000000000	0.0000000000
2.6689834926	0.4956283867	1.4124034643	0.4363323152	1.7624198198	0.0000000000	0.0000000000	0.0000000000
2.6731537793	0.4957157969	1.4123318195	0.4363323152	1.7623674870	0.0000000000	0.0000000000	0.0000000000
2.6773240660	0.4958439469	1.4122266769	0.4363323152	1.7622909546	0.0000000000	0.0000000000	0.0000000000
2.6814943527	0.4960196018	1.4120825529	0.4363323152	1.7621856928	0.0000000000	0.0000000000	0.0000000000
2.6856646394	0.4962493777	1.4118942022	0.4363323152	1.7620482445	0.0000000000	0.0000000000	0.0000000000
2.6898349262	0.4965392053	1.4116564989	0.4363323152	1.7618747950	0.0000000000	0.0000000000	0.0000000000
2.6940052129	0.4968947172	1.4113651514	0.4363323152	1.7616618872	0.0000000000	0.0000000000	0.0000000000
2.6981754996	0.4973211586	1.4110157490	0.4363323152	1.7614064217	0.0000000000	0.0000000000	0.0000000000
2.7023457863	0.4978235662	1.4106044769	0.4363323152	1.7611052990	0.0000000000	0.0000000000	0.0000000000
2.7065160730	0.4984062314	1.4101277590	0.4363323152	1.7607560158	0.0000000000	0.0000000000	0.0000000000
2.7106863597	0.4990735650	1.4095822573	0.4363323152	1.7603555918	0.0000000000	0.0000000000	0.0000000000
2.7148566464	0.4998292625	1.4089649916	0.4363323152	1.7599020004	0.0000000000	0.0000000000	0.0000000000
